<?xml version="1.0" standalone="no"?>
<svg xmlns:xlink="http://www.w3.org/1999/xlink" id="wave" style="transform:rotate(0deg); transition: 0.3s" viewBox="0 0 1440 240" version="1.1" xmlns="http://www.w3.org/2000/svg"><defs><linearGradient id="sw-gradient-0" x1="0" x2="0" y1="1" y2="0"><stop stop-color="rgba(65, 65, 201, 1)" offset="0%"/><stop stop-color="rgba(140.552, 140.552, 221.168, 1)" offset="100%"/></linearGradient></defs><path style="transform:translate(0, 0px); opacity:1" fill="url(#sw-gradient-0)" d="M0,192L60,196C120,200,240,208,360,196C480,184,600,152,720,124C840,96,960,72,1080,80C1200,88,1320,128,1440,144C1560,160,1680,152,1800,148C1920,144,2040,144,2160,144C2280,144,2400,144,2520,120C2640,96,2760,48,2880,24C3000,0,3120,0,3240,24C3360,48,3480,96,3600,120C3720,144,3840,144,3960,128C4080,112,4200,80,4320,84C4440,88,4560,128,4680,152C4800,176,4920,184,5040,172C5160,160,5280,128,5400,128C5520,128,5640,160,5760,152C5880,144,6000,96,6120,100C6240,104,6360,160,6480,168C6600,176,6720,136,6840,100C6960,64,7080,32,7200,52C7320,72,7440,144,7560,172C7680,200,7800,184,7920,160C8040,136,8160,104,8280,76C8400,48,8520,24,8580,12L8640,0L8640,240L8580,240C8520,240,8400,240,8280,240C8160,240,8040,240,7920,240C7800,240,7680,240,7560,240C7440,240,7320,240,7200,240C7080,240,6960,240,6840,240C6720,240,6600,240,6480,240C6360,240,6240,240,6120,240C6000,240,5880,240,5760,240C5640,240,5520,240,5400,240C5280,240,5160,240,5040,240C4920,240,4800,240,4680,240C4560,240,4440,240,4320,240C4200,240,4080,240,3960,240C3840,240,3720,240,3600,240C3480,240,3360,240,3240,240C3120,240,3000,240,2880,240C2760,240,2640,240,2520,240C2400,240,2280,240,2160,240C2040,240,1920,240,1800,240C1680,240,1560,240,1440,240C1320,240,1200,240,1080,240C960,240,840,240,720,240C600,240,480,240,360,240C240,240,120,240,60,240L0,240Z"/></svg>